<?xml version="1.0" standalone="no"?>
<svg xmlns:xlink="http://www.w3.org/1999/xlink" id="wave" style="transform:rotate(0deg); transition: 0.3s" viewBox="0 0 1440 490" version="1.1" xmlns="http://www.w3.org/2000/svg"><defs><linearGradient id="sw-gradient-0" x1="0" x2="0" y1="1" y2="0"><stop stop-color="rgba(206, 184, 171, 1)" offset="0%"/><stop stop-color="rgba(206, 184, 171, 1)" offset="100%"/></linearGradient></defs><path style="transform:translate(0, 0px); opacity:1" fill="url(#sw-gradient-0)" d="M0,343L60,326.7C120,310,240,278,360,277.7C480,278,600,310,720,326.7C840,343,960,343,1080,343C1200,343,1320,343,1440,285.8C1560,229,1680,114,1800,106.2C1920,98,2040,196,2160,253.2C2280,310,2400,327,2520,318.5C2640,310,2760,278,2880,220.5C3000,163,3120,82,3240,98C3360,114,3480,229,3600,285.8C3720,343,3840,343,3960,359.3C4080,376,4200,408,4320,375.7C4440,343,4560,245,4680,187.8C4800,131,4920,114,5040,155.2C5160,196,5280,294,5400,326.7C5520,359,5640,327,5760,285.8C5880,245,6000,196,6120,187.8C6240,180,6360,212,6480,212.3C6600,212,6720,180,6840,187.8C6960,196,7080,245,7200,285.8C7320,327,7440,359,7560,375.7C7680,392,7800,392,7920,383.8C8040,376,8160,359,8280,310.3C8400,261,8520,180,8580,138.8L8640,98L8640,490L8580,490C8520,490,8400,490,8280,490C8160,490,8040,490,7920,490C7800,490,7680,490,7560,490C7440,490,7320,490,7200,490C7080,490,6960,490,6840,490C6720,490,6600,490,6480,490C6360,490,6240,490,6120,490C6000,490,5880,490,5760,490C5640,490,5520,490,5400,490C5280,490,5160,490,5040,490C4920,490,4800,490,4680,490C4560,490,4440,490,4320,490C4200,490,4080,490,3960,490C3840,490,3720,490,3600,490C3480,490,3360,490,3240,490C3120,490,3000,490,2880,490C2760,490,2640,490,2520,490C2400,490,2280,490,2160,490C2040,490,1920,490,1800,490C1680,490,1560,490,1440,490C1320,490,1200,490,1080,490C960,490,840,490,720,490C600,490,480,490,360,490C240,490,120,490,60,490L0,490Z"/></svg>