<?xml version="1.0" standalone="no"?>
<svg xmlns:xlink="http://www.w3.org/1999/xlink" id="wave" style="transform:rotate(0deg); transition: 0.3s" viewBox="0 0 1440 490" version="1.1" xmlns="http://www.w3.org/2000/svg"><defs><linearGradient id="sw-gradient-0" x1="0" x2="0" y1="1" y2="0"><stop stop-color="rgba(206, 184, 171, 1)" offset="0%"/><stop stop-color="rgba(206, 184, 171, 1)" offset="100%"/></linearGradient></defs><path style="transform:translate(0, 0px); opacity:1" fill="url(#sw-gradient-0)" d="M0,196L60,236.8C120,278,240,359,360,359.3C480,359,600,278,720,269.5C840,261,960,327,1080,326.7C1200,327,1320,261,1440,261.3C1560,261,1680,327,1800,294C1920,261,2040,131,2160,89.8C2280,49,2400,98,2520,171.5C2640,245,2760,343,2880,392C3000,441,3120,441,3240,392C3360,343,3480,245,3600,196C3720,147,3840,147,3960,138.8C4080,131,4200,114,4320,122.5C4440,131,4560,163,4680,204.2C4800,245,4920,294,5040,277.7C5160,261,5280,180,5400,179.7C5520,180,5640,261,5760,294C5880,327,6000,310,6120,261.3C6240,212,6360,131,6480,155.2C6600,180,6720,310,6840,343C6960,376,7080,310,7200,245C7320,180,7440,114,7560,114.3C7680,114,7800,180,7920,236.8C8040,294,8160,343,8280,302.2C8400,261,8520,131,8580,65.3L8640,0L8640,490L8580,490C8520,490,8400,490,8280,490C8160,490,8040,490,7920,490C7800,490,7680,490,7560,490C7440,490,7320,490,7200,490C7080,490,6960,490,6840,490C6720,490,6600,490,6480,490C6360,490,6240,490,6120,490C6000,490,5880,490,5760,490C5640,490,5520,490,5400,490C5280,490,5160,490,5040,490C4920,490,4800,490,4680,490C4560,490,4440,490,4320,490C4200,490,4080,490,3960,490C3840,490,3720,490,3600,490C3480,490,3360,490,3240,490C3120,490,3000,490,2880,490C2760,490,2640,490,2520,490C2400,490,2280,490,2160,490C2040,490,1920,490,1800,490C1680,490,1560,490,1440,490C1320,490,1200,490,1080,490C960,490,840,490,720,490C600,490,480,490,360,490C240,490,120,490,60,490L0,490Z"/></svg>