<?xml version="1.0" standalone="no"?>
<svg xmlns:xlink="http://www.w3.org/1999/xlink" id="wave" style="transform:rotate(0deg); transition: 0.3s" viewBox="0 0 1440 490" version="1.1" xmlns="http://www.w3.org/2000/svg"><defs><linearGradient id="sw-gradient-0" x1="0" x2="0" y1="1" y2="0"><stop stop-color="rgba(178, 139, 132, 1)" offset="0%"/><stop stop-color="rgba(178, 139, 132, 1)" offset="100%"/></linearGradient></defs><path style="transform:translate(0, 0px); opacity:1" fill="url(#sw-gradient-0)" d="M0,392L30,400.2C60,408,120,425,180,392C240,359,300,278,360,269.5C420,261,480,327,540,334.8C600,343,660,294,720,253.2C780,212,840,180,900,187.8C960,196,1020,245,1080,285.8C1140,327,1200,359,1260,375.7C1320,392,1380,392,1440,383.8C1500,376,1560,359,1620,351.2C1680,343,1740,343,1800,334.8C1860,327,1920,310,1980,310.3C2040,310,2100,327,2160,277.7C2220,229,2280,114,2340,130.7C2400,147,2460,294,2520,318.5C2580,343,2640,245,2700,171.5C2760,98,2820,49,2880,73.5C2940,98,3000,196,3060,228.7C3120,261,3180,229,3240,204.2C3300,180,3360,163,3420,147C3480,131,3540,114,3600,163.3C3660,212,3720,327,3780,359.3C3840,392,3900,343,3960,285.8C4020,229,4080,163,4140,163.3C4200,163,4260,229,4290,261.3L4320,294L4320,490L4290,490C4260,490,4200,490,4140,490C4080,490,4020,490,3960,490C3900,490,3840,490,3780,490C3720,490,3660,490,3600,490C3540,490,3480,490,3420,490C3360,490,3300,490,3240,490C3180,490,3120,490,3060,490C3000,490,2940,490,2880,490C2820,490,2760,490,2700,490C2640,490,2580,490,2520,490C2460,490,2400,490,2340,490C2280,490,2220,490,2160,490C2100,490,2040,490,1980,490C1920,490,1860,490,1800,490C1740,490,1680,490,1620,490C1560,490,1500,490,1440,490C1380,490,1320,490,1260,490C1200,490,1140,490,1080,490C1020,490,960,490,900,490C840,490,780,490,720,490C660,490,600,490,540,490C480,490,420,490,360,490C300,490,240,490,180,490C120,490,60,490,30,490L0,490Z"/></svg>